<?xml version="1.0" encoding="UTF-8" standalone="no"?>
<svg
   xmlns:dc="http://purl.org/dc/elements/1.1/"
   xmlns:cc="http://creativecommons.org/ns#"
   xmlns:rdf="http://www.w3.org/1999/02/22-rdf-syntax-ns#"
   xmlns:svg="http://www.w3.org/2000/svg"
   xmlns="http://www.w3.org/2000/svg"
   id="svg4615"
   version="1.1"
   viewBox="0 0 300 300.00001"
   height="300mm"
   width="300mm">
  <defs
     id="defs4609" />
  <metadata
     id="metadata4612">
    <rdf:RDF>
      <cc:Work
         rdf:about="">
        <dc:format>image/svg+xml</dc:format>
        <dc:type
           rdf:resource="http://purl.org/dc/dcmitype/StillImage" />
        <dc:title></dc:title>
      </cc:Work>
    </rdf:RDF>
  </metadata>
  <g
     transform="translate(9.7192403,49.766435)"
     id="layer1">
    <path
       id="path827"
       d="m 153.24879,247.51504 c -0.23569,-0.14565 -0.86347,-5.74507 -1.15735,-10.3229 -0.27829,-4.33486 -0.19565,-15.7473 0.14408,-19.8987 0.8551,-10.449 2.7652,-21.32038 4.98848,-28.39204 3.45461,-10.98811 4.49778,-13.9189 7.0827,-19.89869 0.86541,-2.002 2.24964,-5.005 3.07605,-6.67334 l 1.50257,-3.03334 0.87943,0.0673 c 1.49921,0.11483 11.07112,2.62934 14.7726,3.88072 23.59078,7.97548 42.35786,19.45277 59.92491,36.64797 l 3.04717,2.98268 -2.67525,2.59867 c -4.11574,3.99791 -11.25624,10.24268 -11.7119,10.24268 -0.11669,0 -1.01064,-0.82347 -1.98655,-1.82991 -9.59323,-9.89353 -22.07302,-18.81907 -35.30421,-25.24954 -5.53139,-2.68829 -14.7801,-6.40859 -15.93185,-6.40859 -0.30058,0 -0.66191,0.71796 -1.37396,2.73 -1.89337,5.3502 -2.8602,8.68749 -4.16536,14.37802 -2.3597,10.28833 -3.38106,19.99047 -3.24909,30.86403 0.0533,4.39737 0.63739,13.16802 0.94433,14.18169 0.10107,0.3338 -0.49229,0.51216 -3.83066,1.15145 -5.86453,1.12301 -14.51377,2.26756 -14.97614,1.98178 z m -32.2902,-0.64433 c -5.18113,-0.69577 -13.74211,-2.32334 -14.07005,-2.67492 -0.10721,-0.11495 -0.0928,-0.94727 0.032,-1.8496 0.92314,-6.67295 1.1781,-17.88743 0.5751,-25.29541 -0.7016,-8.61908 -1.82631,-15.35757 -3.88831,-23.29604 -0.98514,-3.79269 -3.55313,-11.88524 -3.873024,-12.20513 -0.182931,-0.18292 -2.218684,0.46634 -6.318452,2.01516 -16.716953,6.31534 -31.637119,15.80838 -44.924113,28.58318 -1.277664,1.22841 -2.401686,2.26334 -2.497823,2.29983 -0.09614,0.0365 -0.440147,-0.16126 -0.764462,-0.43936 -0.324317,-0.27815 -0.862665,-0.73558 -1.196334,-1.0165 -2.754527,-2.31904 -6.456579,-5.72616 -9.064787,-8.34256 l -3.119448,-3.12927 2.998113,-2.87903 c 10.060957,-9.66134 19.362576,-16.65492 31.026151,-23.32752 3.962926,-2.26715 12.391161,-6.45 13.832018,-6.8647 0.467135,-0.13445 2.504719,-0.90617 4.527969,-1.71493 5.007363,-2.00164 12.977824,-4.6285 17.686222,-5.82893 3.56042,-0.90774 8.35018,-1.97295 8.87147,-1.97295 0.48681,0 4.89911,9.70142 6.84278,15.04536 4.25934,11.71067 7.21311,24.3178 8.64202,36.88537 1.0751,9.45574 1.02293,22.45721 -0.13169,32.82071 l -0.39878,3.57935 -1.11929,-0.025 c -0.61562,-0.0136 -2.2659,-0.17891 -3.6673,-0.36713 z m 142.3242,-66.09866 c -0.53388,-0.38945 -1.05719,-0.7126 -1.16292,-0.71806 -0.10573,-0.005 -0.32412,-0.12439 -0.48533,-0.26426 -0.16121,-0.13989 -1.27589,-0.90247 -2.47709,-1.69463 -1.20121,-0.79217 -2.29578,-1.52402 -2.43241,-1.62634 -0.13662,-0.10231 -0.79181,-0.56242 -1.456,-1.02242 -1.08518,-0.75159 -6.78693,-5.10356 -8.00228,-6.1079 -8.39956,-6.94113 -15.46893,-14.11849 -22.32014,-22.6611 -1.28449,-1.60159 -2.63014,-3.37729 -2.99034,-3.94599 -0.36018,-0.5687 -1.75328,-2.64351 -3.09575,-4.61068 -4.30402,-6.3068 -7.76423,-12.23701 -11.00734,-18.86469 -2.08692,-4.26486 -2.4331,-5.09617 -2.2384,-5.37531 0.77355,-1.10905 14.98893,-11.49005 15.73406,-11.49005 0.10964,0 1.67261,-0.88677 3.47328,-1.97061 6.34054,-3.8164 16.05099,-8.514787 23.29397,-11.270753 9.80114,-3.729347 20.99127,-6.618688 31.79864,-8.210559 2.47933,-0.365187 7.00274,-0.873444 7.77355,-0.873444 h 0.88131 l 0.28269,2.851342 c 0.63561,6.41093 1.05429,15.86316 0.71754,16.199888 -0.0925,0.09252 -0.58846,0.161467 -4.42086,0.614575 -17.39656,2.056791 -35.12146,8.156171 -50.74356,17.461531 -3.70489,2.20685 -4.24668,2.59504 -4.24668,3.04288 0,0.59512 6.11611,9.76029 8.4958,12.7312 0.48109,0.60059 1.59297,1.99327 2.47086,3.09483 6.18572,7.76176 16.32588,17.34575 24.46273,23.12099 1.86598,1.32442 7.03758,4.75446 7.89383,5.23556 0.26301,0.14776 0.51193,0.44004 0.55321,0.64948 0.1863,0.94572 -8.77704,16.44757 -9.49576,16.4226 -0.15726,-0.005 -0.72275,-0.32861 -1.25661,-0.71808 z M 12.545306,176.10072 c -2.332464,-3.91707 -4.8154118,-8.42709 -6.1623662,-11.19329 -0.7700284,-1.58139 -0.7891265,-1.68286 -0.3653332,-1.94134 9.6809994,-5.90436 17.6748014,-12.23045 25.6161854,-20.27201 4.28291,-4.33693 7.483947,-8.07673 11.577601,-13.52623 2.629532,-3.50045 7.131104,-10.19591 7.131104,-10.60651 0,-0.066 -1.283102,-0.92701 -2.851337,-1.91341 C 35.583926,109.15842 23.257386,103.9176 9.4531098,100.47544 4.2757927,99.184455 -1.1683356,98.216477 -7.7702533,97.413073 -8.4342915,97.332273 -9.0223058,97.22144 -9.0769513,97.166796 -9.3801287,96.863617 -8.2463556,80.923997 -7.7607502,78.662428 -7.6239229,78.02519 -8.0532265,78.004141 -0.86023601,79.000725 16.748909,81.440444 36.121495,87.903909 49.735829,95.88157 c 0.934267,0.547467 2.736071,1.599127 4.004005,2.337045 4.389422,2.554555 8.952444,5.538525 12.618683,8.251945 4.378806,3.24079 8.493344,6.61487 8.493344,6.96485 0,0.93405 -7.417931,14.89517 -8.959201,16.86192 -0.366078,0.46713 -1.791733,2.54193 -3.168122,4.61067 -9.087029,13.65794 -21.320794,26.48906 -34.748204,36.44487 -4.556427,3.37838 -12.297991,8.44853 -12.899999,8.44853 -0.180084,0 -1.319048,-1.66531 -2.531029,-3.70068 z M 225.79073,62.325766 c -0.86753,-0.08694 -2.72393,-0.23053 -4.12534,-0.319146 -3.88612,-0.245709 -9.4641,-0.835576 -13.10401,-1.385719 -4.63943,-0.701212 -13.68656,-2.560931 -15.13217,-3.110553 l -0.64118,-0.243773 4.8e-4,-4.313353 c 4.9e-4,-4.384909 0.35683,-11.136863 0.72727,-13.777355 1.39396,-9.935878 1.71555,-11.842352 2.94417,-17.453294 2.66822,-12.185317 6.59888,-23.1817599 12.45403,-34.841442 2.59646,-5.170469 3.42785,-6.669977 6.39453,-11.533234 2.39085,-3.919299 2.52917,-4.08976 3.15717,-3.890443 1.18444,0.375929 11.99623,7.921585 15.175,10.590784 0.11321,0.09507 -0.86333,1.903863 -2.17007,4.019541 -5.20446,8.4261841 -9.91848,18.722842 -13.16734,28.760962 -2.30073,7.108702 -4.67842,18.493488 -5.27489,25.257129 -0.13388,1.517992 -0.10097,1.884247 0.17095,1.899235 0.18524,0.01022 0.5006,0.04937 0.7008,0.08703 0.2002,0.03765 1.0738,0.144106 1.94133,0.236561 0.86754,0.09246 2.06875,0.223799 2.66935,0.291866 3.56963,0.404553 7.50422,0.531668 13.95334,0.450797 4.00401,-0.05022 7.71681,-0.144628 8.25069,-0.209821 0.53386,-0.06519 1.68047,-0.185677 2.548,-0.267749 3.23191,-0.305746 6.56729,-0.716281 8.12934,-1.000597 0.26693,-0.04858 1.68654,-0.306072 3.15467,-0.572193 3.01855,-0.547159 2.76308,-0.49334 6.18801,-1.303545 4.22158,-0.998657 11.62819,-3.168169 12.98268,-3.802828 1.71765,-0.804821 1.77559,-0.794285 2.39905,0.436249 1.54126,3.041999 6.4583,15.694782 6.4583,16.618818 0,0.681537 -13.59879,4.853525 -20.02002,6.141971 -0.26694,0.05356 -1.03134,0.209664 -1.69868,0.346899 -1.66157,0.3417 -2.09635,0.422594 -3.18459,0.592526 -0.51742,0.0808 -1.10454,0.195174 -1.30474,0.254176 -0.38145,0.112426 -4.59204,0.733292 -6.67335,0.984009 -0.66734,0.08035 -1.48633,0.186304 -1.82,0.235373 -0.33367,0.04906 -1.37107,0.156028 -2.30534,0.237701 -0.93427,0.08172 -2.02627,0.189561 -2.42667,0.239747 -3.14052,0.393657 -14.58857,0.620418 -17.35069,0.343681 z M 43.547821,60.970313 C 37.860993,60.705692 25.774908,59.082464 20.327093,57.851654 13.235177,56.2494 3.8938084,53.516858 -0.67286301,51.708747 L -1.3348248,51.446648 -0.46849711,48.951264 C 1.1670578,44.240183 4.9992967,35.125574 5.7704366,34.112562 c 0.2514614,-0.330332 0.789486,-0.204574 4.5320084,1.059301 8.504311,2.871963 16.754422,4.740259 25.601366,5.797613 5.999728,0.717064 6.225461,0.732931 12.86135,0.904082 5.843353,0.150714 11.474602,-0.06828 16.744022,-0.651162 3.612091,-0.399554 3.356446,-0.228562 3.167442,-2.118608 -1.908457,-19.084829 -8.11276,-37.8018085 -17.939528,-54.1195 -1.311465,-2.17773 -2.346257,-3.992494 -2.299541,-4.032805 2.579233,-2.225662 14.928703,-10.571708 15.642735,-10.571708 0.125974,0 1.392186,1.938302 2.813804,4.307339 8.477569,14.12732 14.495436,29.1341719 18.030347,44.962573 0.46609,2.087019 0.850103,4.167389 0.853367,4.62304 0.0032,0.455651 0.106384,1.265256 0.229158,1.799123 0.326888,1.421422 1.170754,7.479817 1.605537,11.526683 0.211316,1.966852 0.437949,6.962223 0.513888,11.326753 l 0.135849,7.808075 -0.941849,0.25013 c -5.034296,1.336917 -15.261049,3.118981 -18.938954,3.300204 -1.356528,0.06686 -2.830731,0.174711 -3.276004,0.23972 -3.483492,0.50855 -15.070668,0.748765 -21.557613,0.446898 z M 138.68221,30.379189 c -4.81793,-3.763852 -11.29268,-9.672707 -14.55838,-13.286018 -0.8444,-0.934268 -2.20987,-2.40847 -3.03438,-3.276005 C 115.7757,8.2261865 109.15671,-0.56383375 103.95534,-8.9369599 99.584987,-15.97232 94.563614,-26.146452 91.83099,-33.502898 c -1.655347,-4.456323 -2.661777,-7.40361 -2.661777,-7.794899 0,-0.481261 2.292606,-1.362897 7.883882,-3.031791 3.067665,-0.915644 10.024965,-2.762661 10.406315,-2.762661 0.0632,0 0.24601,0.409501 0.4063,0.910001 0.65485,2.044668 3.66186,9.810864 4.69483,12.125331 2.9348,6.575705 6.68471,13.350979 10.73605,19.397661 1.80367,2.692011 5.48941,7.7247634 6.87303,9.3848788 3.44573,4.134329 4.62366,5.44413855 8.4321,9.376106 l 2.47643,2.5567605 1.84759,-1.8200023 c 4.82029,-4.74831399 10.39677,-11.308102 14.54355,-17.108022 7.00162,-9.792848 13.13709,-21.609913 16.79589,-32.349332 l 0.68682,-2.015957 0.78771,0.146106 c 2.6133,0.484714 12.35563,3.439879 16.39065,4.971825 1.23428,0.468607 1.38606,0.597216 1.24911,1.058373 -0.0858,0.288722 -0.85995,2.416553 -1.72048,4.728516 -5.35957,14.399603 -12.49085,27.225182 -21.98744,39.5443663 -4.39885,5.7062728 -13.15679,14.9100827 -19.47159,20.4628717 -3.61588,3.179562 -9.05336,7.49729 -9.44161,7.49729 -0.15952,0 -1.09378,-0.6279 -2.07614,-1.395335 z"
       style="fill:#3cffa1;stroke-width:0.24266699;fill-opacity:1" />
  </g>
</svg>
